<svg width="16" height="17" viewBox="0 0 16 17" fill="none" xmlns="http://www.w3.org/2000/svg">
<path d="M12.8 13.3C13.2243 13.3 13.6313 13.4686 13.9314 13.7686C14.2314 14.0687 14.4 14.4757 14.4 14.9C14.4 15.3243 14.2314 15.7313 13.9314 16.0314C13.6313 16.3314 13.2243 16.5 12.8 16.5C11.912 16.5 11.2 15.78 11.2 14.9C11.2 14.012 11.912 13.3 12.8 13.3ZM0 0.5H2.616L3.368 2.1H15.2C15.4122 2.1 15.6157 2.18429 15.7657 2.33431C15.9157 2.48434 16 2.68783 16 2.9C16 3.036 15.96 3.172 15.904 3.3L13.04 8.476C12.768 8.964 12.24 9.3 11.64 9.3H5.68L4.96 10.604L4.936 10.7C4.936 10.753 4.95707 10.8039 4.99458 10.8414C5.03209 10.8789 5.08296 10.9 5.136 10.9H14.4V12.5H4.8C3.912 12.5 3.2 11.78 3.2 10.9C3.2 10.62 3.272 10.356 3.392 10.132L4.48 8.172L1.6 2.1H0V0.5ZM4.8 13.3C5.22435 13.3 5.63131 13.4686 5.93137 13.7686C6.23143 14.0687 6.4 14.4757 6.4 14.9C6.4 15.3243 6.23143 15.7313 5.93137 16.0314C5.63131 16.3314 5.22435 16.5 4.8 16.5C3.912 16.5 3.2 15.78 3.2 14.9C3.2 14.012 3.912 13.3 4.8 13.3ZM12 7.7L14.224 3.7H4.112L6 7.7H12Z" fill="white"/>
</svg>
