<svg width="30" height="21" viewBox="0 0 30 21" fill="none" xmlns="http://www.w3.org/2000/svg">
<path d="M8.75 10.8167C11.5 10.8167 13.75 8.56665 13.75 5.81665C13.75 3.06665 11.5 0.81665 8.75 0.81665C6 0.81665 3.75 3.06665 3.75 5.81665C3.75 8.56665 6 10.8167 8.75 10.8167ZM13.75 20.8167V14.1917C12.375 13.6917 10.625 13.3167 8.75 13.3167C3.875 13.3167 0 15.5667 0 18.3167V20.8167H13.75ZM27.5 0.81665H18.75C17.375 0.81665 16.25 1.94165 16.25 3.31665V18.3167C16.25 19.6917 17.375 20.8167 18.75 20.8167H27.5C28.875 20.8167 30 19.6917 30 18.3167V3.31665C30 1.94165 28.875 0.81665 27.5 0.81665ZM22.5 18.3167H20V3.31665H22.5V18.3167Z" fill="white"/>
</svg>
