<svg width="21" height="21" viewBox="0 0 21 21" fill="none" xmlns="http://www.w3.org/2000/svg">
<path d="M15 0.31665C12.24 0.31665 10 2.55665 10 5.31665C10 8.07665 12.24 10.3167 15 10.3167C17.76 10.3167 20 8.07665 20 5.31665C20 2.55665 17.76 0.31665 15 0.31665ZM15 8.31665C13.34 8.31665 12 6.97665 12 5.31665C12 3.65665 13.34 2.31665 15 2.31665C16.66 2.31665 18 3.65665 18 5.31665C18 6.97665 16.66 8.31665 15 8.31665ZM18 14.3167H16C16 13.1167 15.25 12.0367 14.13 11.6167L7.97 9.31665H0V20.3167H6V18.8766L13 20.8167L21 18.3167V17.3167C21 15.6567 19.66 14.3167 18 14.3167ZM4 18.3167H2V11.3167H4V18.3167ZM12.97 18.7267L6 16.8167V11.3167H7.61L13.43 13.4867C13.77 13.6167 14 13.9467 14 14.3167C14 14.3167 12 14.2667 11.7 14.1667L9.32 13.3767L8.69 15.2766L11.07 16.0667C11.58 16.2367 12.11 16.3167 12.65 16.3167H18C18.39 16.3167 18.74 16.5567 18.9 16.8867L12.97 18.7267Z" fill="#1D1D1D"/>
</svg>
