<svg width="16" height="17" viewBox="0 0 16 17" fill="none" xmlns="http://www.w3.org/2000/svg">
<path d="M8.208 15.827L7.2 16.835L6 15.635L4.8 16.835L3.6 15.635L2.4 16.835L1.2 15.635L0 16.835V0.835022L1.2 2.03502L2.4 0.835022L3.6 2.03502L4.8 0.835022L6 2.03502L7.2 0.835022L8.4 2.03502L9.6 0.835022L10.8 2.03502L12 0.835022L13.2 2.03502L14.4 0.835022V9.91502C13.896 9.73902 13.36 9.63502 12.8 9.63502V3.23502H1.6V14.435H8C8 14.891 8.08 15.411 8.208 15.827ZM2.4 11.235V12.835H8.28C8.488 12.235 8.8 11.699 9.232 11.235H2.4ZM2.4 9.63502H12V8.03502H2.4V9.63502ZM2.4 6.43502H12V4.83502H2.4V6.43502ZM16 13.019L15.072 11.891L12.2 14.763L10.928 13.491L10 14.435L12.2 16.835" fill="#4390C2"/>
</svg>
