<svg width="16" height="13" viewBox="0 0 16 13" fill="none" xmlns="http://www.w3.org/2000/svg">
<path d="M12.3636 11.3805C12.9673 11.3805 13.4545 10.8932 13.4545 10.2896C13.4545 9.68592 12.9673 9.19864 12.3636 9.19864C11.76 9.19864 11.2727 9.68592 11.2727 10.2896C11.2727 10.8932 11.76 11.3805 12.3636 11.3805ZM13.4545 4.83501H11.6364V6.65319H14.88L13.4545 4.83501ZM3.63636 11.3805C4.24 11.3805 4.72727 10.8932 4.72727 10.2896C4.72727 9.68592 4.24 9.19864 3.63636 9.19864C3.03273 9.19864 2.54545 9.68592 2.54545 10.2896C2.54545 10.8932 3.03273 11.3805 3.63636 11.3805ZM13.8182 3.7441L16 6.65319V10.2896H14.5455C14.5455 11.4968 13.5709 12.4714 12.3636 12.4714C11.1564 12.4714 10.1818 11.4968 10.1818 10.2896H5.81818C5.81818 11.4968 4.84364 12.4714 3.63636 12.4714C2.42909 12.4714 1.45455 11.4968 1.45455 10.2896H0V2.28955C0 1.48228 0.647273 0.835007 1.45455 0.835007H11.6364V3.7441H13.8182ZM1.45455 2.28955V8.83501H2.00727C2.40727 8.39137 2.98909 8.10773 3.63636 8.10773C4.28364 8.10773 4.86545 8.39137 5.26545 8.83501H10.1818V2.28955H1.45455ZM2.90909 5.56228L4 4.47137L5.09091 5.56228L7.63636 3.01682L8.72727 4.10773L5.09091 7.7441L2.90909 5.56228Z" fill="#4390C2"/>
</svg>
