<svg width="15" height="19" viewBox="0 0 15 19" fill="none" xmlns="http://www.w3.org/2000/svg">
<path d="M12.6723 9.03551C12.4423 8.73551 12.1623 8.47551 11.9023 8.21551C11.2323 7.61551 10.4723 7.18551 9.83226 6.55551C8.34226 5.09551 8.01226 2.68551 8.96226 0.83551C8.01226 1.06551 7.18226 1.58551 6.47226 2.15551C3.88226 4.23551 2.86226 7.90551 4.08226 11.0555C4.12226 11.1555 4.16226 11.2555 4.16226 11.3855C4.16226 11.6055 4.01226 11.8055 3.81226 11.8855C3.58226 11.9855 3.34226 11.9255 3.15226 11.7655C3.09226 11.7155 3.05226 11.6655 3.01226 11.5955C1.88226 10.1655 1.70226 8.11551 2.46226 6.47551C0.792256 7.83551 -0.117743 10.1355 0.0122567 12.3055C0.0722567 12.8055 0.132257 13.3055 0.302257 13.8055C0.442257 14.4055 0.712257 15.0055 1.01226 15.5355C2.09226 17.2655 3.96226 18.5055 5.97226 18.7555C8.11226 19.0255 10.4023 18.6355 12.0423 17.1555C13.8723 15.4955 14.5123 12.8355 13.5723 10.5555L13.4423 10.2955C13.2323 9.83551 12.6723 9.03551 12.6723 9.03551ZM9.51226 15.3355C9.23226 15.5755 8.77226 15.8355 8.41226 15.9355C7.29226 16.3355 6.17226 15.7755 5.51226 15.1155C6.70226 14.8355 7.41226 13.9555 7.62226 13.0655C7.79226 12.2655 7.47226 11.6055 7.34226 10.8355C7.22226 10.0955 7.24226 9.46551 7.51226 8.77551C7.70226 9.15551 7.90226 9.53551 8.14226 9.83551C8.91226 10.8355 10.1223 11.2755 10.3823 12.6355C10.4223 12.7755 10.4423 12.9155 10.4423 13.0655C10.4723 13.8855 10.1123 14.7855 9.51226 15.3355Z" fill="white"/>
</svg>
