<svg width="25" height="24" viewBox="0 0 25 24" fill="none" xmlns="http://www.w3.org/2000/svg">
<path d="M19.8519 4.69852L17.5714 1.41228C16.9386 0.50035 15.6918 0.282273 14.7881 0.909409L1.64312 10.0314C0.739403 10.6585 0.50741 11.9028 1.14025 12.8147L3.42074 16.101C4.33267 15.4681 5.57697 15.7001 6.20411 16.6039C6.83124 17.5076 6.61316 18.7544 5.70123 19.3872L7.98173 22.6735C8.60886 23.5772 9.86138 23.8035 10.7651 23.1763L23.91 14.0544C24.8138 13.4272 25.04 12.1747 24.4129 11.271L22.1324 7.98475C21.2287 8.61189 19.9762 8.3856 19.3491 7.48188C18.7219 6.57817 18.9482 5.32565 19.8519 4.69852ZM17.3764 4.63929C16.7922 5.88461 16.8679 7.41444 17.7059 8.62213C18.544 9.82982 19.9506 10.436 21.3217 10.3245L22.7698 12.4112L9.62485 21.5332L8.17673 19.4465C8.761 18.2011 8.68531 16.6713 7.84722 15.4636C6.99204 14.2313 5.61073 13.644 4.23148 13.7613L2.78337 11.6745L15.9283 2.55253L17.3764 4.63929ZM13.6654 15.0777L15.3085 13.9374L16.4488 15.5805L14.8056 16.7208M11.3849 11.7914L13.028 10.6512L14.1683 12.2943L12.5251 13.4346M9.1044 8.5052L10.7475 7.36495L11.8878 9.00807L10.2446 10.1483L9.1044 8.5052Z" fill="#1D1D1D"/>
</svg>
