<svg width="16" height="17" viewBox="0 0 16 17" fill="none" xmlns="http://www.w3.org/2000/svg">
<path d="M13.8691 3.6932C15.1855 5.00957 16 6.82775 16 8.83502C16 10.8423 15.1855 12.6605 13.8691 13.9768L12.8436 12.9514C13.8982 11.9041 14.5455 10.4496 14.5455 8.83502C14.5455 7.22775 13.8982 5.76593 12.8436 4.71866L13.8691 3.6932ZM11.8109 5.75139C12.6036 6.54411 13.0909 7.63502 13.0909 8.83502C13.0909 10.035 12.6036 11.1259 11.8109 11.9187L10.7855 10.8932C11.3091 10.3696 11.6364 9.64229 11.6364 8.83502C11.6364 8.02775 11.3091 7.30048 10.7855 6.77684L11.8109 5.75139ZM8.72727 7.38048C9.11304 7.38048 9.48301 7.53372 9.75579 7.8065C10.0286 8.07928 10.1818 8.44925 10.1818 8.83502C10.1818 9.22079 10.0286 9.59076 9.75579 9.86354C9.48301 10.1363 9.11304 10.2896 8.72727 10.2896C8.3415 10.2896 7.97153 10.1363 7.69875 9.86354C7.42597 9.59076 7.27273 9.22079 7.27273 8.83502C7.27273 8.44925 7.42597 8.07928 7.69875 7.8065C7.97153 7.53372 8.3415 7.38048 8.72727 7.38048ZM7.63636 0.835022C8.11858 0.835022 8.58104 1.02658 8.92201 1.36756C9.26299 1.70853 9.45455 2.17099 9.45455 2.6532V5.92593H8V3.01684H1.45455V13.9259H8V11.7441H9.45455V15.0168C9.45455 15.4991 9.26299 15.9615 8.92201 16.3025C8.58104 16.6435 8.11858 16.835 7.63636 16.835H1.81818C1.33597 16.835 0.873508 16.6435 0.532533 16.3025C0.191558 15.9615 0 15.4991 0 15.0168V2.6532C0 2.17099 0.191558 1.70853 0.532533 1.36756C0.873508 1.02658 1.33597 0.835022 1.81818 0.835022H7.63636Z" fill="#4390C2"/>
</svg>
