<svg width="16" height="16" viewBox="0 0 16 16" fill="none" xmlns="http://www.w3.org/2000/svg">
<path d="M8.208 14.992L7.2 16L6 14.8L4.8 16L3.6 14.8L2.4 16L1.2 14.8L0 16V0L1.2 1.2L2.4 0L3.6 1.2L4.8 0L6 1.2L7.2 0L8.4 1.2L9.6 0L10.8 1.2L12 0L13.2 1.2L14.4 0V9.08C13.896 8.904 13.36 8.8 12.8 8.8V2.4H1.6V13.6H8C8 14.056 8.08 14.576 8.208 14.992ZM2.4 10.4V12H8.28C8.488 11.4 8.8 10.864 9.232 10.4H2.4ZM2.4 8.8H12V7.2H2.4V8.8ZM2.4 5.6H12V4H2.4V5.6ZM16 12.184L15.072 11.056L12.2 13.928L10.928 12.656L10 13.6L12.2 16" fill="#4390C2"/>
</svg>
