<svg width="16" height="16" viewBox="0 0 16 16" fill="none" xmlns="http://www.w3.org/2000/svg">
<path d="M5.81818 2.18182L7.63636 6.18182L11.6364 8L7.63636 9.81818L5.81818 13.8182L4 9.81818L0 8L4 6.18182L5.81818 2.18182ZM5.81818 5.69455L5.09091 7.27273L3.51273 8L5.09091 8.72727L5.81818 10.3055L6.54545 8.72727L8.12364 8L6.54545 7.27273L5.81818 5.69455ZM13.0909 5.81818L12.1745 3.82545L10.1818 2.90909L12.1745 2L13.0909 0L14 2L16 2.90909L14 3.82545L13.0909 5.81818ZM13.0909 16L12.1745 14.0073L10.1818 13.0909L12.1745 12.1818L13.0909 10.1818L14 12.1818L16 13.0909L14 14.0073L13.0909 16Z" fill="#4390C2"/>
</svg>
