<svg width="16" height="13" viewBox="0 0 16 13" fill="none" xmlns="http://www.w3.org/2000/svg">
<path d="M12.3636 11.2273C12.9673 11.2273 13.4545 10.74 13.4545 10.1364C13.4545 9.53273 12.9673 9.04546 12.3636 9.04546C11.76 9.04546 11.2727 9.53273 11.2727 10.1364C11.2727 10.74 11.76 11.2273 12.3636 11.2273ZM13.4545 4.68182H11.6364V6.50001H14.88L13.4545 4.68182ZM3.63636 11.2273C4.24 11.2273 4.72727 10.74 4.72727 10.1364C4.72727 9.53273 4.24 9.04546 3.63636 9.04546C3.03273 9.04546 2.54545 9.53273 2.54545 10.1364C2.54545 10.74 3.03273 11.2273 3.63636 11.2273ZM13.8182 3.59091L16 6.50001V10.1364H14.5455C14.5455 11.3436 13.5709 12.3182 12.3636 12.3182C11.1564 12.3182 10.1818 11.3436 10.1818 10.1364H5.81818C5.81818 11.3436 4.84364 12.3182 3.63636 12.3182C2.42909 12.3182 1.45455 11.3436 1.45455 10.1364H0V2.13637C0 1.3291 0.647273 0.681824 1.45455 0.681824H11.6364V3.59091H13.8182ZM1.45455 2.13637V8.68182H2.00727C2.40727 8.23819 2.98909 7.95455 3.63636 7.95455C4.28364 7.95455 4.86545 8.23819 5.26545 8.68182H10.1818V2.13637H1.45455ZM2.90909 5.4091L4 4.31819L5.09091 5.4091L7.63636 2.86364L8.72727 3.95455L5.09091 7.59091L2.90909 5.4091Z" fill="#4390C2"/>
</svg>
