<svg width="13" height="17" viewBox="0 0 13 17" fill="none" xmlns="http://www.w3.org/2000/svg">
<path d="M3.81021 6.5956C3.8181 5.99187 4.06144 5.41508 4.48838 4.98814C4.91532 4.5612 5.49211 4.31786 6.09584 4.30997C6.69957 4.31786 7.27636 4.5612 7.7033 4.98814C8.13024 5.41508 8.37358 5.99187 8.38147 6.5956C8.37358 7.19933 8.13024 7.77612 7.7033 8.20306C7.27636 8.63 6.69957 8.87334 6.09584 8.88123C5.49211 8.87334 4.91532 8.63 4.48838 8.20306C4.06144 7.77612 3.8181 7.19933 3.81021 6.5956ZM6.09584 13.4525L9.14335 14.2144V11.8678C8.22428 12.4213 7.16858 12.7063 6.09584 12.6906C5.0231 12.7063 3.9674 12.4213 3.04833 11.8678V14.2144M6.09584 2.02434C5.49546 2.01339 4.89918 2.12534 4.34365 2.35331C3.78813 2.58129 3.2851 2.92047 2.86548 3.35001C2.4313 3.77008 2.08819 4.275 1.85751 4.83336C1.62683 5.39172 1.5135 5.99157 1.52458 6.5956C1.51664 7.19581 1.63149 7.7913 1.86208 8.3455C2.09267 8.8997 2.43413 9.40091 2.86548 9.81834C3.28314 10.252 3.78529 10.5954 4.34091 10.8274C4.89653 11.0593 5.49381 11.1749 6.09584 11.1669C6.69787 11.1749 7.29515 11.0593 7.85077 10.8274C8.40639 10.5954 8.90854 10.252 9.3262 9.81834C9.75755 9.40091 10.099 8.8997 10.3296 8.3455C10.5602 7.7913 10.675 7.19581 10.6671 6.5956C10.6782 5.99157 10.5649 5.39172 10.3342 4.83336C10.1035 4.275 9.76038 3.77008 9.3262 3.35001C8.90658 2.92047 8.40355 2.58129 7.84803 2.35331C7.2925 2.12534 6.69622 2.01339 6.09584 2.02434ZM12.1909 6.5956C12.1746 7.32691 12.0276 8.04941 11.7566 8.72886C11.5125 9.4202 11.1431 10.0607 10.6671 10.6183V16.5L6.09584 14.9762L1.52458 16.5V10.6183C0.538473 9.51089 -0.00412647 8.07842 0.00082512 6.5956C-0.0126029 5.79608 0.137991 5.00228 0.44331 4.26323C0.748629 3.52417 1.20219 2.85554 1.776 2.29862C2.33499 1.71966 3.00671 1.26142 3.74969 0.952173C4.49267 0.642925 5.29115 0.489234 6.09584 0.500586C6.90053 0.489234 7.69901 0.642925 8.44199 0.952173C9.18497 1.26142 9.85669 1.71966 10.4157 2.29862C10.9895 2.85554 11.4431 3.52417 11.7484 4.26323C12.0537 5.00228 12.2043 5.79608 12.1909 6.5956Z" fill="#4390C2"/>
</svg>
