<svg width="25" height="25" viewBox="0 0 25 25" fill="none" xmlns="http://www.w3.org/2000/svg">
<path d="M12.4664 7.45528L14.1541 7.63323L13.1457 17.1969L11.458 17.0189L12.4664 7.45528ZM1.55471 11.1397L13.9924 1.07474C14.8553 0.376482 16.107 0.508465 16.8052 1.37133L19.3215 4.48076C18.4664 5.17272 18.3329 6.4385 19.0249 7.29359C19.7232 8.15646 20.9826 8.28215 21.8377 7.59018L24.354 10.6996C25.0522 11.5625 24.9202 12.8142 24.0574 13.5124L11.6197 23.5774C10.7646 24.2694 9.5051 24.1437 8.80685 23.2808L6.2906 20.1714C7.15347 19.4731 7.28545 18.2214 6.5872 17.3586C5.89523 16.5035 4.63723 16.3637 3.77436 17.062L1.25812 13.9525C0.559864 13.0897 0.699621 11.8317 1.55471 11.1397ZM2.81283 12.6944L4.41065 14.6689C5.82749 14.4486 7.24235 14.9888 8.14191 16.1004C9.04147 17.2121 9.28103 18.7163 8.76375 20.0482L10.3616 22.0227L22.7993 11.9577L21.2014 9.98324C19.7909 10.2114 18.3697 9.66333 17.4702 8.55171C16.5706 7.44009 16.3374 5.94367 16.8483 4.60394L15.2505 2.62945L2.81283 12.6944ZM8.34641 10.7893C8.99162 10.2672 9.93392 10.3665 10.456 11.0117C10.9782 11.6569 10.8788 12.5992 10.2336 13.1214C9.58839 13.6435 8.64609 13.5441 8.12397 12.8989C7.60185 12.2537 7.70121 11.3114 8.34641 10.7893ZM15.3785 11.5308C16.0237 11.0087 16.966 11.108 17.4881 11.7532C18.0102 12.3984 17.9109 13.3407 17.2657 13.8628C16.6205 14.385 15.6782 14.2856 15.1561 13.6404C14.6339 12.9952 14.7333 12.0529 15.3785 11.5308Z" fill="white"/>
</svg>
