<svg width="13" height="16" viewBox="0 0 13 16" fill="none" xmlns="http://www.w3.org/2000/svg">
<path d="M10.6565 6.86584H1.52236C1.1186 6.86584 0.731387 7.02623 0.445889 7.31173C0.160391 7.59723 0 7.98445 0 8.3882V14.4776C0 14.8814 0.160391 15.2686 0.445889 15.5541C0.731387 15.8396 1.1186 16 1.52236 16H10.6565C11.0603 16 11.4475 15.8396 11.733 15.5541C12.0185 15.2686 12.1789 14.8814 12.1789 14.4776V8.3882C12.1789 7.98445 12.0185 7.59723 11.733 7.31173C11.4475 7.02623 11.0603 6.86584 10.6565 6.86584ZM10.6565 14.4776H1.52236V11.4329H10.6565V14.4776ZM10.6565 9.91056H1.52236V8.3882H10.6565V9.91056ZM0.707897 2.23787L1.78116 3.31113C4.15604 0.928639 8.01522 0.928639 10.3977 3.31113L11.471 2.23787C8.50238 -0.745956 3.68411 -0.745956 0.707897 2.23787ZM2.86204 4.39201L3.9353 5.46527C5.12274 4.27783 7.04852 4.27783 8.24358 5.46527L9.31684 4.39201C7.53568 2.61085 4.6432 2.61085 2.86204 4.39201Z" fill="#4390C2"/>
</svg>
