<svg width="16" height="16" viewBox="0 0 16 16" fill="none" xmlns="http://www.w3.org/2000/svg">
<path d="M13.8691 2.85818C15.1855 4.17455 16 5.99273 16 8C16 10.0073 15.1855 11.8255 13.8691 13.1418L12.8436 12.1164C13.8982 11.0691 14.5455 9.61455 14.5455 8C14.5455 6.39273 13.8982 4.93091 12.8436 3.88364L13.8691 2.85818ZM11.8109 4.91636C12.6036 5.70909 13.0909 6.8 13.0909 8C13.0909 9.2 12.6036 10.2909 11.8109 11.0836L10.7855 10.0582C11.3091 9.53455 11.6364 8.80727 11.6364 8C11.6364 7.19273 11.3091 6.46545 10.7855 5.94182L11.8109 4.91636ZM8.72727 6.54545C9.11304 6.54545 9.48301 6.6987 9.75579 6.97148C10.0286 7.24426 10.1818 7.61423 10.1818 8C10.1818 8.38577 10.0286 8.75574 9.75579 9.02852C9.48301 9.3013 9.11304 9.45455 8.72727 9.45455C8.3415 9.45455 7.97153 9.3013 7.69875 9.02852C7.42597 8.75574 7.27273 8.38577 7.27273 8C7.27273 7.61423 7.42597 7.24426 7.69875 6.97148C7.97153 6.6987 8.3415 6.54545 8.72727 6.54545ZM7.63636 0C8.11858 0 8.58104 0.191558 8.92201 0.532533C9.26299 0.873508 9.45455 1.33597 9.45455 1.81818V5.09091H8V2.18182H1.45455V13.0909H8V10.9091H9.45455V14.1818C9.45455 14.664 9.26299 15.1265 8.92201 15.4675C8.58104 15.8084 8.11858 16 7.63636 16H1.81818C1.33597 16 0.873508 15.8084 0.532533 15.4675C0.191558 15.1265 0 14.664 0 14.1818V1.81818C0 1.33597 0.191558 0.873508 0.532533 0.532533C0.873508 0.191558 1.33597 0 1.81818 0H7.63636Z" fill="#4390C2"/>
</svg>
