<svg width="16" height="15" viewBox="0 0 16 15" fill="none" xmlns="http://www.w3.org/2000/svg">
<path d="M8 14.1666L10.6667 10.6111C9.92593 10.0555 9 9.7222 8 9.7222C7 9.7222 6.07407 10.0555 5.33333 10.6111L8 14.1666ZM8 0.833313C5 0.833313 2.22963 1.82591 0 3.49998L1.33333 5.27776C3.18519 3.88516 5.4963 3.05554 8 3.05554C10.5037 3.05554 12.8148 3.88516 14.6667 5.27776L16 3.49998C13.7704 1.82591 11 0.833313 8 0.833313ZM8 5.27776C6 5.27776 4.15556 5.93702 2.66667 7.05554L4 8.83331C5.11111 7.99628 6.4963 7.49998 8 7.49998C9.50371 7.49998 10.8889 7.99628 12 8.83331L13.3333 7.05554C11.8444 5.93702 10 5.27776 8 5.27776Z" fill="#4390C2"/>
</svg>
