<svg width="20" height="20" viewBox="0 0 20 20" fill="none" xmlns="http://www.w3.org/2000/svg">
<path d="M5.88686 0.305664H13.9699C17.0491 0.305664 19.551 2.80755 19.551 5.8868V13.9698C19.551 15.45 18.963 16.8696 17.9163 17.9163C16.8697 18.9629 15.4501 19.5509 13.9699 19.5509H5.88686C2.80761 19.5509 0.305725 17.0491 0.305725 13.9698V5.8868C0.305725 4.40659 0.893736 2.98701 1.9404 1.94034C2.98707 0.893675 4.40665 0.305664 5.88686 0.305664ZM5.6944 2.23019C4.77565 2.23019 3.89453 2.59516 3.24488 3.24482C2.59523 3.89447 2.23025 4.77559 2.23025 5.69434V14.1623C2.23025 16.0772 3.7795 17.6264 5.6944 17.6264H14.1623C15.0811 17.6264 15.9622 17.2614 16.6119 16.6118C17.2615 15.9621 17.6265 15.081 17.6265 14.1623V5.69434C17.6265 3.77944 16.0772 2.23019 14.1623 2.23019H5.6944ZM14.9803 3.67359C15.2993 3.67359 15.6052 3.80032 15.8308 4.02589C16.0564 4.25146 16.1831 4.55741 16.1831 4.87642C16.1831 5.19543 16.0564 5.50137 15.8308 5.72695C15.6052 5.95252 15.2993 6.07925 14.9803 6.07925C14.6612 6.07925 14.3553 5.95252 14.1297 5.72695C13.9041 5.50137 13.7774 5.19543 13.7774 4.87642C13.7774 4.55741 13.9041 4.25146 14.1297 4.02589C14.3553 3.80032 14.6612 3.67359 14.9803 3.67359ZM9.92837 5.11699C11.2044 5.11699 12.4282 5.62389 13.3305 6.52619C14.2328 7.42849 14.7397 8.65226 14.7397 9.92831C14.7397 11.2043 14.2328 12.4281 13.3305 13.3304C12.4282 14.2327 11.2044 14.7396 9.92837 14.7396C8.65233 14.7396 7.42855 14.2327 6.52625 13.3304C5.62395 12.4281 5.11705 11.2043 5.11705 9.92831C5.11705 8.65226 5.62395 7.42849 6.52625 6.52619C7.42855 5.62389 8.65233 5.11699 9.92837 5.11699ZM9.92837 7.04151C9.16274 7.04151 8.42847 7.34566 7.8871 7.88704C7.34572 8.42841 7.04157 9.16268 7.04157 9.92831C7.04157 10.6939 7.34572 11.4282 7.8871 11.9696C8.42847 12.511 9.16274 12.8151 9.92837 12.8151C10.694 12.8151 11.4283 12.511 11.9696 11.9696C12.511 11.4282 12.8152 10.6939 12.8152 9.92831C12.8152 9.16268 12.511 8.42841 11.9696 7.88704C11.4283 7.34566 10.694 7.04151 9.92837 7.04151Z" fill="white"/>
</svg>
