<svg width="22" height="18" viewBox="0 0 22 18" fill="none" xmlns="http://www.w3.org/2000/svg">
<path d="M21.6611 2.76273C20.8975 3.1068 20.0744 3.3329 19.2216 3.44104C20.0943 2.92002 20.7686 2.09426 21.0859 1.10138C20.2629 1.5929 19.3505 1.93697 18.3886 2.13358C17.6052 1.28816 16.5044 0.796631 15.2549 0.796631C12.9245 0.796631 11.0205 2.68409 11.0205 5.01392C11.0205 5.34816 11.0601 5.67256 11.1296 5.97731C7.59921 5.80036 4.45561 4.11934 2.36318 1.57324C1.99627 2.19256 1.78802 2.92002 1.78802 3.6868C1.78802 5.15155 2.53177 6.44917 3.68211 7.18646C2.97802 7.18646 2.32352 6.98985 1.74835 6.69494C1.74835 6.69494 1.74835 6.69494 1.74835 6.72443C1.74835 8.76917 3.21602 10.4797 5.1597 10.8631C4.8027 10.9614 4.42586 11.0105 4.03911 11.0105C3.77136 11.0105 3.50361 10.981 3.24577 10.9319C3.78127 12.5932 5.3382 13.8319 7.21246 13.8614C5.76462 15.0017 3.93002 15.6702 1.92685 15.6702C1.58968 15.6702 1.25251 15.6505 0.915344 15.6112C2.79952 16.8105 5.0407 17.5085 7.44054 17.5085C15.2549 17.5085 19.5488 11.0793 19.5488 5.50544C19.5488 5.31866 19.5488 5.14172 19.5389 4.95494C20.3719 4.36511 21.0859 3.61799 21.6611 2.76273Z" fill="white"/>
</svg>
