<svg width="80" height="80" viewBox="0 0 80 80" fill="none" xmlns="http://www.w3.org/2000/svg">
<rect width="80" height="80" rx="40" fill="#04B756"/>
<path d="M42.5864 18C30.7884 18 21.1729 27.5675 21.1729 39.3065C21.1729 43.069 22.1668 46.724 24.0251 49.949L21 61L32.3442 58.033C35.4774 59.7315 38.9995 60.6345 42.5864 60.6345C54.3844 60.6345 64 51.067 64 39.328C64 33.6305 61.7744 28.277 57.7337 24.2565C53.693 20.2145 48.3126 18 42.5864 18ZM42.608 21.5905C47.3618 21.5905 51.8131 23.4395 55.1839 26.7935C58.5332 30.1475 60.3915 34.598 60.3915 39.328C60.3915 49.089 52.3965 57.0225 42.5864 57.0225C39.3884 57.0225 36.2553 56.184 33.5327 54.55L32.8844 54.1845L26.1427 55.9475L27.9362 49.4115L27.504 48.7235C25.7322 45.95 24.7814 42.6605 24.7814 39.3065C24.803 29.5455 32.7764 21.5905 42.608 21.5905ZM35.002 29.4595C34.6563 29.4595 34.0729 29.5885 33.5759 30.126C33.1005 30.6635 31.696 31.975 31.696 34.5765C31.696 37.1995 33.6191 39.715 33.8568 40.0805C34.1593 40.446 37.6598 45.821 43.0402 48.1C44.3151 48.6805 45.309 49.003 46.0869 49.2395C47.3618 49.648 48.5286 49.5835 49.4578 49.4545C50.495 49.304 52.6126 48.1645 53.0663 46.9175C53.5201 45.6705 53.5201 44.617 53.3905 44.3805C53.2392 44.1655 52.8935 44.0365 52.3533 43.8C51.8131 43.499 49.1769 42.209 48.7015 42.037C48.2045 41.865 47.902 41.779 47.4915 42.295C47.1457 42.8325 46.1085 44.0365 45.806 44.3805C45.4819 44.746 45.1794 44.789 44.6608 44.531C44.099 44.2515 42.3703 43.6925 40.3392 41.8865C38.7402 40.4675 37.6814 38.726 37.3573 38.1885C37.098 37.6725 37.3357 37.35 37.595 37.1135C37.8327 36.877 38.1784 36.49 38.3945 36.1675C38.6754 35.8665 38.7618 35.63 38.9347 35.286C39.1075 34.9205 39.0211 34.6195 38.8915 34.3615C38.7618 34.125 37.6814 31.459 37.2276 30.4055C36.7955 29.3735 36.3633 29.5025 36.0176 29.481C35.7151 29.481 35.3693 29.4595 35.002 29.4595Z" fill="white"/>
</svg>
