<svg width="13" height="17" viewBox="0 0 13 17" fill="none" xmlns="http://www.w3.org/2000/svg">
<path d="M10.6565 7.67054H1.52236C1.1186 7.67054 0.731387 7.83094 0.445889 8.11643C0.160391 8.40193 0 8.78915 0 9.1929V15.2823C0 15.6861 0.160391 16.0733 0.445889 16.3588C0.731387 16.6443 1.1186 16.8047 1.52236 16.8047H10.6565C11.0603 16.8047 11.4475 16.6443 11.733 16.3588C12.0185 16.0733 12.1789 15.6861 12.1789 15.2823V9.1929C12.1789 8.78915 12.0185 8.40193 11.733 8.11643C11.4475 7.83094 11.0603 7.67054 10.6565 7.67054ZM10.6565 15.2823H1.52236V12.2376H10.6565V15.2823ZM10.6565 10.7153H1.52236V9.1929H10.6565V10.7153ZM0.707897 3.04257L1.78116 4.11583C4.15604 1.73334 8.01522 1.73334 10.3977 4.11583L11.471 3.04257C8.50238 0.0587465 3.68411 0.0587465 0.707897 3.04257ZM2.86204 5.19671L3.9353 6.26997C5.12274 5.08253 7.04852 5.08253 8.24358 6.26997L9.31684 5.19671C7.53568 3.41555 4.6432 3.41555 2.86204 5.19671Z" fill="#4390C2"/>
</svg>
