<svg width="11" height="17" viewBox="0 0 11 17" fill="none" xmlns="http://www.w3.org/2000/svg">
<path d="M8.72727 2.25925H6.54545V3.71379H8.72727V15.3502H1.45455V3.71379H3.63636V2.25925H1.45455C1.06878 2.25925 0.698807 2.41249 0.426026 2.68527C0.153246 2.95805 0 3.32802 0 3.71379V15.3502C0 15.7359 0.153246 16.1059 0.426026 16.3787C0.698807 16.6515 1.06878 16.8047 1.45455 16.8047H8.72727C9.11304 16.8047 9.48301 16.6515 9.75579 16.3787C10.0286 16.1059 10.1818 15.7359 10.1818 15.3502V3.71379C10.1818 3.32802 10.0286 2.95805 9.75579 2.68527C9.48301 2.41249 9.11304 2.25925 8.72727 2.25925ZM5.81818 3.71379H4.36364V0.804703H5.81818V3.71379Z" fill="#4390C2"/>
</svg>
