<svg width="16" height="17" viewBox="0 0 16 17" fill="none" xmlns="http://www.w3.org/2000/svg">
<path d="M5.81818 3.01684L7.63636 7.01684L11.6364 8.83502L7.63636 10.6532L5.81818 14.6532L4 10.6532L0 8.83502L4 7.01684L5.81818 3.01684ZM5.81818 6.52957L5.09091 8.10775L3.51273 8.83502L5.09091 9.56229L5.81818 11.1405L6.54545 9.56229L8.12364 8.83502L6.54545 8.10775L5.81818 6.52957ZM13.0909 6.6532L12.1745 4.66048L10.1818 3.74411L12.1745 2.83502L13.0909 0.835022L14 2.83502L16 3.74411L14 4.66048L13.0909 6.6532ZM13.0909 16.835L12.1745 14.8423L10.1818 13.9259L12.1745 13.0168L13.0909 11.0168L14 13.0168L16 13.9259L14 14.8423L13.0909 16.835Z" fill="#4390C2"/>
</svg>
