<svg width="29" height="25" viewBox="0 0 29 25" fill="none" xmlns="http://www.w3.org/2000/svg">
<path d="M0 10.3257L21.6652 1.06595e-05L28.549 14.4435L6.88382 24.7692L0 10.3257ZM12.5535 8.77374C13.5112 8.31731 14.6109 8.26001 15.6109 8.61443C16.6108 8.96886 17.4289 9.70598 17.8854 10.6636C18.3418 11.6213 18.3991 12.7211 18.0447 13.721C17.6902 14.7209 16.9531 15.539 15.9954 15.9955C15.0378 16.4519 13.938 16.5092 12.9381 16.1548C11.9382 15.8003 11.1201 15.0632 10.6636 14.1056C10.2072 13.1479 10.1499 12.0481 10.5043 11.0482C10.8588 10.0483 11.5959 9.23016 12.5535 8.77374ZM5.96178 10.4384C6.26607 11.0768 6.30427 11.81 6.06799 12.4766C5.8317 13.1432 5.34029 13.6886 4.70185 13.9929L6.99646 18.8074C7.6349 18.5031 8.36806 18.4649 9.03467 18.7012C9.70128 18.9375 10.2467 19.4289 10.551 20.0673L22.5872 14.3308C22.2829 13.6924 22.2447 12.9592 22.481 12.2926C22.7173 11.626 23.2087 11.0806 23.8471 10.7763L21.5525 5.9618C20.9141 6.26608 20.1809 6.30428 19.5143 6.068C18.8477 5.83171 18.3023 5.3403 17.998 4.70186L5.96178 10.4384Z" fill="#1D1D1D"/>
</svg>
