<svg width="13" height="17" viewBox="0 0 13 17" fill="none" xmlns="http://www.w3.org/2000/svg">
<path d="M3.81021 6.93061C3.8181 6.32688 4.06144 5.75009 4.48838 5.32315C4.91532 4.89621 5.49211 4.65287 6.09584 4.64498C6.69957 4.65287 7.27636 4.89621 7.7033 5.32315C8.13024 5.75009 8.37358 6.32688 8.38147 6.93061C8.37358 7.53434 8.13024 8.11112 7.7033 8.53806C7.27636 8.965 6.69957 9.20835 6.09584 9.21624C5.49211 9.20835 4.91532 8.965 4.48838 8.53806C4.06144 8.11112 3.8181 7.53434 3.81021 6.93061ZM6.09584 13.7875L9.14335 14.5494V12.2028C8.22428 12.7563 7.16858 13.0413 6.09584 13.0256C5.0231 13.0413 3.9674 12.7563 3.04833 12.2028V14.5494M6.09584 2.35935C5.49546 2.34839 4.89918 2.46034 4.34365 2.68832C3.78813 2.91629 3.2851 3.25547 2.86548 3.68501C2.4313 4.10509 2.08819 4.61001 1.85751 5.16837C1.62683 5.72672 1.5135 6.32658 1.52458 6.93061C1.51664 7.53081 1.63149 8.12631 1.86208 8.68051C2.09267 9.23471 2.43413 9.73592 2.86548 10.1533C3.28314 10.587 3.78529 10.9304 4.34091 11.1624C4.89653 11.3943 5.49381 11.5099 6.09584 11.5019C6.69787 11.5099 7.29515 11.3943 7.85077 11.1624C8.40639 10.9304 8.90854 10.587 9.3262 10.1533C9.75755 9.73592 10.099 9.23471 10.3296 8.68051C10.5602 8.12631 10.675 7.53081 10.6671 6.93061C10.6782 6.32658 10.5649 5.72672 10.3342 5.16837C10.1035 4.61001 9.76038 4.10509 9.3262 3.68501C8.90658 3.25547 8.40355 2.91629 7.84803 2.68832C7.2925 2.46034 6.69622 2.34839 6.09584 2.35935ZM12.1909 6.93061C12.1746 7.66192 12.0276 8.38441 11.7566 9.06386C11.5125 9.75521 11.1431 10.3957 10.6671 10.9533V16.835L6.09584 15.3113L1.52458 16.835V10.9533C0.538473 9.8459 -0.00412647 8.41343 0.00082512 6.93061C-0.0126029 6.13108 0.137991 5.33729 0.44331 4.59823C0.748629 3.85918 1.20219 3.19055 1.776 2.63362C2.33499 2.05467 3.00671 1.59643 3.74969 1.28718C4.49267 0.977932 5.29115 0.82424 6.09584 0.835593C6.90053 0.82424 7.69901 0.977932 8.44199 1.28718C9.18497 1.59643 9.85669 2.05467 10.4157 2.63362C10.9895 3.19055 11.4431 3.85918 11.7484 4.59823C12.0537 5.33729 12.2043 6.13108 12.1909 6.93061Z" fill="#4390C2"/>
</svg>
