<svg width="16" height="14" viewBox="0 0 16 14" fill="none" xmlns="http://www.w3.org/2000/svg">
<path d="M8 13.8047L10.6667 10.2492C9.92593 9.6936 9 9.36026 8 9.36026C7 9.36026 6.07407 9.6936 5.33333 10.2492L8 13.8047ZM8 0.471375C5 0.471375 2.22963 1.46397 0 3.13804L1.33333 4.91582C3.18519 3.52323 5.4963 2.6936 8 2.6936C10.5037 2.6936 12.8148 3.52323 14.6667 4.91582L16 3.13804C13.7704 1.46397 11 0.471375 8 0.471375ZM8 4.91582C6 4.91582 4.15556 5.57508 2.66667 6.6936L4 8.47138C5.11111 7.63434 6.4963 7.13804 8 7.13804C9.5037 7.13804 10.8889 7.63434 12 8.47138L13.3333 6.6936C11.8444 5.57508 10 4.91582 8 4.91582Z" fill="#4390C2"/>
</svg>
