<svg width="134" height="52" viewBox="0 0 134 52" fill="none" xmlns="http://www.w3.org/2000/svg">
<path d="M8.78384 1.16711L0.0197783 49.72C-0.115515 50.4695 0.460481 51.1588 1.22212 51.1588H13.6508C14.2421 51.1588 14.7486 50.7353 14.8533 50.1534L20.6402 17.9848C20.7405 17.4271 21.4803 17.2947 21.7678 17.783L34.3667 39.1784C38.2729 38.7664 42.7049 38.0989 46.9409 37.0195C50.4408 36.1277 53.7389 34.9713 56.4726 33.4873C59.2166 31.9977 62.0004 28.693 63.1834 26.6732C66.9874 20.1785 69.95 15.6781 73.5852 11.1165C75.4008 8.83824 77.4514 6.91868 79.0826 5.44219C79.455 5.1051 79.8323 4.79088 80.2129 4.48878C80.7098 3.63063 79.499 2.35725 78.3042 1.38211C77.084 0.386356 75.5111 -0.0140717 73.9363 0.000376421L57.2897 0.153097C56.7035 0.158475 56.2038 0.579473 56.0989 1.15626L50.2174 33.5045C50.1497 33.8767 49.658 33.9688 49.4671 33.6421C47.833 30.8443 42.8513 22.3314 38.2375 14.6144C33.747 7.10349 30.2291 0.162364 27.1914 0.162364H9.98525C9.39419 0.162364 8.88883 0.585458 8.78384 1.16711Z" fill="#00278D"/>
<path d="M46.2562 51.0668H60.8068C61.3866 51.0668 61.8866 50.6593 62.0035 50.0914L63.6104 42.2862C63.6875 41.912 63.5505 41.5259 63.2548 41.284C57.8579 43.5123 51.0565 44.436 44.6904 44.7451C42.301 44.8611 39.9468 44.8915 37.7164 44.8668L38.8866 46.854C40.4237 49.4643 43.2269 51.0668 46.2562 51.0668Z" fill="#00278D"/>
<path d="M133.987 1.11765L125.433 49.8877C125.313 50.5695 124.721 51.0668 124.029 51.0668H112.044C111.285 51.0668 110.71 50.382 110.841 49.6344L116.337 18.2391C116.413 17.8066 115.844 17.577 115.598 17.9407L95.0696 48.291C93.8955 50.0268 91.9365 51.0668 89.8409 51.0668H82.2592C80.491 51.0668 78.9258 49.9291 78.3833 48.2462C77.4384 45.3152 75.9223 40.6155 74.649 36.6815C74.2893 35.5702 74.6115 34.3652 75.3638 33.4716C75.8257 32.9229 76.2542 32.3504 76.6647 31.7455C77.5908 30.3806 78.4272 28.8447 79.3487 27.1524L79.3489 27.152C79.5839 26.7204 79.8244 26.2787 80.0734 25.8271C81.0712 24.017 82.328 21.8372 83.969 19.3328C84.3428 18.7624 85.2057 18.8902 85.4078 19.5416L89.0393 31.2516C89.1914 31.742 89.8415 31.8413 90.1276 31.4149C91.8354 28.8703 96.3711 22.1145 100.924 15.3509C105.95 7.88496 109.853 0.162415 115.008 0.162415H133.187C133.693 0.162415 134.075 0.619139 133.987 1.11765Z" fill="#4390C2"/>
<path fill-rule="evenodd" clip-rule="evenodd" d="M27.6898 41.7249C37.4262 41.2399 58.4543 39.0536 64.196 29.2507C71.7442 16.3635 79.9368 5.52445 84.4473 4.39682C85.2481 4.19661 86.3587 4.09674 87.6633 3.97942C88.7755 3.8794 90.0287 3.76671 91.3511 3.56836C93.3801 3.26402 95.6364 2.82857 97.7196 2.3892C98.1331 2.30199 98.3911 3.09221 98.0157 3.28644C93.8097 5.46286 88.347 9.39045 83.5268 16.3635C80.6624 20.5071 78.9406 23.6678 77.5441 26.2312C74.3182 32.153 72.8283 34.888 62.9993 39.1922C52.7204 43.6934 35.9694 43.0463 27.6685 42.3681C27.2777 42.3362 27.2981 41.7444 27.6898 41.7249ZM68.5011 28.2706C68.432 28.1397 68.2445 28.1397 68.1755 28.2706L67.5646 29.4284C67.538 29.4789 67.4894 29.5141 67.4332 29.5239L66.1433 29.747C65.9974 29.7723 65.9395 29.9506 66.0426 30.0568L66.955 30.9955C66.9948 31.0364 67.0133 31.0935 67.0052 31.15L66.8189 32.4457C66.7978 32.5922 66.9495 32.7025 67.0823 32.6371L68.257 32.0595C68.3083 32.0343 68.3683 32.0343 68.4195 32.0595L69.5942 32.6371C69.7271 32.7025 69.8788 32.5922 69.8577 32.4457L69.6714 31.15C69.6632 31.0935 69.6818 31.0364 69.7216 30.9955L70.6339 30.0568C70.7371 29.9506 70.6791 29.7723 70.5333 29.747L69.2434 29.5239C69.1872 29.5141 69.1386 29.4789 69.112 29.4284L68.5011 28.2706Z" fill="#F64638"/>
</svg>
