<svg width="189" height="85" viewBox="0 0 189 85" fill="none" xmlns="http://www.w3.org/2000/svg">
<path d="M12.1212 2.29344L0.0413398 68.599C-0.241446 70.1512 0.962486 71.5786 2.55444 71.5786H18.4261C19.662 71.5786 20.7206 70.7016 20.9394 69.4964L28.7929 26.2427C29.0026 25.0877 30.5488 24.8135 31.1498 25.8248L48.3785 54.8129C53.8958 54.2363 60.1558 53.3022 66.1389 51.7917C71.0824 50.5436 75.7408 48.9253 79.602 46.8486C83.4776 44.764 87.4097 40.1393 89.0806 37.3127C94.4536 28.2239 98.6381 21.9259 103.773 15.5422C106.337 12.354 109.233 9.66769 111.537 7.60145C112.063 7.12971 112.596 6.68999 113.134 6.26722C113.662 5.3638 112.825 4.13153 111.659 2.99549C109.313 0.708278 105.926 -0.0290512 102.635 0.000869399L81.4407 0.193518C80.2154 0.204656 79.1708 1.07651 78.9516 2.27098L70.9005 46.1441C70.759 46.9149 69.7256 47.0963 69.3265 46.4199C66.6974 41.9627 60.0371 30.6974 53.8459 20.4373C47.5032 9.92633 42.5343 0.21271 38.2438 0.21271H14.6281C13.3927 0.21271 12.3406 1.08889 12.1212 2.29344Z" fill="#1D1D1D"/>
<path d="M68.4291 71.4498H85.0489C86.2608 71.4498 87.3057 70.6059 87.5501 69.4298L89.6837 59.162C89.7926 58.6383 89.5991 58.0981 89.1814 57.7595C81.5587 60.8778 71.9519 62.1705 62.9602 62.6031C59.5853 62.7654 56.2602 62.8079 53.1097 62.7734C56.305 68.1495 62.1321 71.4498 68.4291 71.4498Z" fill="#1D1D1D"/>
<path d="M188.974 2.19085L177.145 69.0078C176.895 70.4198 175.657 71.4497 174.21 71.4497H159.079C157.493 71.4497 156.29 70.0316 156.564 68.4832L163.934 26.7692C164.093 25.8734 162.905 25.3979 162.391 26.1512L135.391 65.7013C132.937 69.296 128.842 71.4497 124.462 71.4497H118.035C114.339 71.4497 111.067 69.0908 109.932 65.6058C108.723 61.8907 107.118 56.9639 105.673 52.5374C104.922 50.2359 105.611 47.7482 107.094 45.8266C107.448 45.3682 107.789 44.897 108.122 44.4109C109.43 42.5009 110.612 40.3515 111.913 37.9833L111.913 37.9832L111.913 37.9828C112.245 37.3788 112.585 36.7606 112.937 36.1285C114.217 33.8275 115.799 31.0996 117.816 27.992C118.587 26.804 120.388 27.0667 120.81 28.4156L125.344 42.8999C125.662 43.9155 127.023 44.1182 127.621 43.2353C130.329 39.2385 136.347 30.358 142.388 21.4678C149.487 11.0198 154.999 0.212646 162.28 0.212646H187.304C188.362 0.212646 189.157 1.15848 188.974 2.19085Z" fill="#1D1D1D"/>
<path fill-rule="evenodd" clip-rule="evenodd" d="M38.9476 58.3767C52.6997 57.698 82.4008 54.6384 90.5107 40.9199C101.172 22.8852 112.744 7.71674 119.115 6.13871C120.246 5.85853 121.814 5.71877 123.657 5.55459C125.228 5.41462 126.998 5.25692 128.866 4.97933C131.732 4.55344 134.919 3.94406 137.861 3.32919C138.445 3.20714 138.809 4.313 138.279 4.58481C132.339 7.63056 124.623 13.1269 117.814 22.8852C113.769 28.6839 111.337 33.107 109.364 36.6944C104.808 44.9815 102.703 48.809 88.8204 54.8324C74.3021 61.1315 50.6421 60.2259 38.9175 59.2768C38.3655 59.2321 38.3944 58.404 38.9476 58.3767ZM96.5914 39.5483C96.4939 39.3651 96.229 39.3651 96.1315 39.5483L95.2687 41.1686C95.231 41.2392 95.1624 41.2886 95.083 41.3022L93.2611 41.6145C93.0551 41.6499 92.9733 41.8994 93.119 42.048L94.4076 43.3617C94.4638 43.4189 94.49 43.4988 94.4785 43.5779L94.2153 45.3912C94.1856 45.5962 94.3999 45.7504 94.5875 45.659L96.2467 44.8507C96.3191 44.8155 96.4038 44.8155 96.4762 44.8507L98.1354 45.659C98.323 45.7504 98.5373 45.5962 98.5075 45.3912L98.2443 43.5779C98.2329 43.4988 98.2591 43.4189 98.3153 43.3617L99.6039 42.048C99.7496 41.8994 99.6678 41.6499 99.4618 41.6145L97.6399 41.3022C97.5604 41.2886 97.4919 41.2392 97.4542 41.1686L96.5914 39.5483Z" fill="#1D1D1D"/>
<path d="M1.86523 82.9149V76.9634H2.78342L6.55055 81.5461H6.09575V76.9634H7.20272V82.9149H6.28453L2.5174 78.3323H2.9722V82.9149H1.86523Z" fill="#1D1D1D"/>
<path d="M13.2573 82.9999C12.7882 82.9999 12.3563 82.9234 11.9616 82.7704C11.5668 82.6173 11.2236 82.4048 10.9318 82.1327C10.6401 81.855 10.4141 81.5319 10.2539 81.1635C10.0937 80.7894 10.0137 80.3813 10.0137 79.9392C10.0137 79.4971 10.0937 79.0918 10.2539 78.7234C10.4141 78.3493 10.6401 78.0262 10.9318 77.7541C11.2236 77.4764 11.5668 77.261 11.9616 77.108C12.3563 76.9549 12.7854 76.8784 13.2488 76.8784C13.7179 76.8784 14.1469 76.9549 14.5359 77.108C14.9307 77.261 15.2739 77.4764 15.5657 77.7541C15.8574 78.0262 16.0834 78.3493 16.2436 78.7234C16.4038 79.0918 16.4839 79.4971 16.4839 79.9392C16.4839 80.3813 16.4038 80.7894 16.2436 81.1635C16.0834 81.5376 15.8574 81.8606 15.5657 82.1327C15.2739 82.4048 14.9307 82.6173 14.5359 82.7704C14.1469 82.9234 13.7207 82.9999 13.2573 82.9999ZM13.2488 82.0307C13.552 82.0307 13.8323 81.9797 14.0897 81.8776C14.3471 81.7756 14.5703 81.6311 14.759 81.444C14.9478 81.2513 15.0937 81.0303 15.1967 80.7809C15.3054 80.5258 15.3597 80.2452 15.3597 79.9392C15.3597 79.6331 15.3054 79.3554 15.1967 79.106C15.0937 78.8509 14.9478 78.6298 14.759 78.4428C14.5703 78.2501 14.3471 78.1027 14.0897 78.0007C13.8323 77.8987 13.552 77.8477 13.2488 77.8477C12.9456 77.8477 12.6652 77.8987 12.4078 78.0007C12.1561 78.1027 11.933 78.2501 11.7385 78.4428C11.5497 78.6298 11.4009 78.8509 11.2922 79.106C11.1893 79.3554 11.1378 79.6331 11.1378 79.9392C11.1378 80.2396 11.1893 80.5173 11.2922 80.7724C11.4009 81.0274 11.5497 81.2513 11.7385 81.444C11.9273 81.6311 12.1504 81.7756 12.4078 81.8776C12.6652 81.9797 12.9456 82.0307 13.2488 82.0307Z" fill="#1D1D1D"/>
<path d="M19.2967 82.9149V76.9634H21.7681C22.3001 76.9634 22.7549 77.0485 23.1325 77.2185C23.5158 77.3885 23.8104 77.6323 24.0164 77.9497C24.2223 78.2671 24.3253 78.644 24.3253 79.0805C24.3253 79.5169 24.2223 79.8938 24.0164 80.2112C23.8104 80.523 23.5158 80.7639 23.1325 80.9339C22.7549 81.0983 22.3001 81.1805 21.7681 81.1805H19.9146L20.4123 80.6788V82.9149H19.2967ZM23.2269 82.9149L21.708 80.7554H22.9008L24.4283 82.9149H23.2269ZM20.4123 80.7979L19.9146 80.2707H21.7166C22.2086 80.2707 22.5776 80.1659 22.8236 79.9562C23.0753 79.7465 23.2012 79.4545 23.2012 79.0805C23.2012 78.7007 23.0753 78.4088 22.8236 78.2047C22.5776 78.0007 22.2086 77.8987 21.7166 77.8987H19.9146L20.4123 77.3545V80.7979Z" fill="#1D1D1D"/>
<path d="M28.3385 82.9149V77.8987H26.3477V76.9634H31.4449V77.8987H29.4541V82.9149H28.3385Z" fill="#1D1D1D"/>
<path d="M34.9423 79.4375H37.9285V80.3473H34.9423V79.4375ZM35.0281 81.9882H38.4176V82.9149H33.9125V76.9634H38.2975V77.8902H35.0281V81.9882Z" fill="#1D1D1D"/>
<path d="M44.8418 82.9149V76.9634H45.5455L48.2399 81.461H47.8624L50.5225 76.9634H51.2262L51.2348 82.9149H50.411L50.4024 78.2472H50.5998L48.2314 82.1922H47.8366L45.4511 78.2472H45.6656V82.9149H44.8418Z" fill="#1D1D1D"/>
<path d="M53.7583 82.9149L56.4785 76.9634H57.3281L60.0569 82.9149H59.1559L56.7274 77.4395H57.0706L54.6422 82.9149H53.7583ZM54.9168 81.427L55.1484 80.7468H58.5294L58.7783 81.427H54.9168ZM56.264 76.4788L57.431 75.3735H58.4779L57.0363 76.4788H56.264Z" fill="#1D1D1D"/>
<path d="M65.2112 82.9829C64.7535 82.9829 64.3273 82.9064 63.9326 82.7533C63.5436 82.6003 63.2061 82.3877 62.92 82.1157C62.634 81.8379 62.4109 81.5149 62.2507 81.1464C62.0905 80.778 62.0104 80.3756 62.0104 79.9391C62.0104 79.5027 62.0905 79.1003 62.2507 78.7319C62.4109 78.3634 62.634 78.0432 62.92 77.7711C63.2061 77.4934 63.5436 77.278 63.9326 77.125C64.3216 76.9719 64.7478 76.8954 65.2112 76.8954C65.6689 76.8954 66.0893 76.9719 66.4726 77.125C66.8616 77.2723 67.1992 77.4849 67.4852 77.7626C67.777 78.0347 68.0001 78.3549 68.1545 78.7234C68.3147 79.0918 68.3948 79.497 68.3948 79.9391C68.3948 80.3813 68.3147 80.7865 68.1545 81.1549C68.0001 81.5234 67.777 81.8464 67.4852 82.1242C67.1992 82.3962 66.8616 82.6088 66.4726 82.7618C66.0893 82.9092 65.6689 82.9829 65.2112 82.9829ZM67.1763 84.1562C66.9761 84.1562 66.7844 84.1307 66.6014 84.0797C66.4183 84.0343 66.2352 83.9578 66.0522 83.8501C65.8691 83.7481 65.6803 83.612 65.4858 83.442C65.2913 83.2776 65.0796 83.0736 64.8508 82.8299L65.769 82.5918C65.9406 82.8015 66.1036 82.9716 66.2581 83.1019C66.4183 83.238 66.5756 83.3343 66.7301 83.391C66.8845 83.4533 67.0361 83.4845 67.1849 83.4845C67.6139 83.4845 67.9801 83.3145 68.2833 82.9744L68.6866 83.459C68.2976 83.9238 67.7941 84.1562 67.1763 84.1562ZM65.2112 82.2262C65.543 82.2262 65.8491 82.1695 66.1294 82.0562C66.4154 81.9428 66.6614 81.7813 66.8674 81.5715C67.079 81.3618 67.2421 81.1181 67.3565 80.8404C67.4766 80.5626 67.5367 80.2622 67.5367 79.9391C67.5367 79.6104 67.4766 79.3072 67.3565 79.0294C67.2421 78.7517 67.079 78.5108 66.8674 78.3068C66.6614 78.097 66.4154 77.9355 66.1294 77.8221C65.8491 77.7088 65.543 77.6521 65.2112 77.6521C64.8737 77.6521 64.5619 77.7088 64.2759 77.8221C63.9955 77.9355 63.7495 78.097 63.5379 78.3068C63.3262 78.5108 63.1603 78.7517 63.0402 79.0294C62.9258 79.3072 62.8685 79.6104 62.8685 79.9391C62.8685 80.2622 62.9258 80.5626 63.0402 80.8404C63.1603 81.1181 63.3262 81.3618 63.5379 81.5715C63.7495 81.7813 63.9955 81.9428 64.2759 82.0562C64.5619 82.1695 64.8737 82.2262 65.2112 82.2262Z" fill="#1D1D1D"/>
<path d="M73.8254 82.9829C73.0359 82.9829 72.4152 82.759 71.9632 82.3112C71.5113 81.8635 71.2853 81.2088 71.2853 80.3472V76.9634H72.1434V80.3132C72.1434 80.9764 72.2893 81.461 72.5811 81.7671C72.8786 82.0732 73.2962 82.2262 73.8339 82.2262C74.3774 82.2262 74.795 82.0732 75.0868 81.7671C75.3843 81.461 75.533 80.9764 75.533 80.3132V76.9634H76.3654V80.3472C76.3654 81.2088 76.1394 81.8635 75.6875 82.3112C75.2412 82.759 74.6205 82.9829 73.8254 82.9829Z" fill="#1D1D1D"/>
<path d="M79.7551 82.9149V76.9634H80.6132V82.9149H79.7551Z" fill="#1D1D1D"/>
<path d="M84.042 82.9149V76.9634H84.7456L88.7187 81.8521H88.3497V76.9634H89.2078V82.9149H88.5042L84.5311 78.0262H84.9001V82.9149H84.042Z" fill="#1D1D1D"/>
<path d="M91.7266 82.9149L94.4468 76.9634H95.2964L98.0252 82.9149H97.1242L94.6957 77.4395H95.0389L92.6105 82.9149H91.7266ZM92.8851 81.427L93.1168 80.7468H96.4977L96.7466 81.427H92.8851Z" fill="#1D1D1D"/>
<path d="M102.302 82.9829C101.845 82.9829 101.407 82.9149 100.989 82.7788C100.572 82.6371 100.243 82.4558 100.002 82.2347L100.32 81.5715C100.549 81.7699 100.841 81.9343 101.195 82.0647C101.55 82.195 101.919 82.2602 102.302 82.2602C102.651 82.2602 102.934 82.2205 103.152 82.1412C103.369 82.0618 103.529 81.9541 103.632 81.8181C103.735 81.6764 103.787 81.5177 103.787 81.342C103.787 81.1379 103.718 80.9736 103.581 80.8489C103.449 80.7242 103.275 80.625 103.057 80.5513C102.846 80.4719 102.611 80.4039 102.354 80.3472C102.096 80.2906 101.836 80.2254 101.573 80.1517C101.315 80.0723 101.078 79.9732 100.861 79.8541C100.649 79.7351 100.477 79.5764 100.346 79.378C100.214 79.174 100.148 78.9132 100.148 78.5958C100.148 78.2897 100.228 78.0092 100.389 77.7541C100.555 77.4934 100.806 77.2865 101.144 77.1335C101.487 76.9748 101.922 76.8954 102.448 76.8954C102.797 76.8954 103.143 76.9408 103.486 77.0314C103.83 77.1221 104.127 77.2525 104.379 77.4225L104.096 78.1027C103.838 77.9327 103.567 77.8108 103.28 77.7371C102.994 77.6578 102.717 77.6181 102.448 77.6181C102.111 77.6181 101.833 77.6606 101.616 77.7456C101.398 77.8306 101.238 77.944 101.135 78.0857C101.038 78.2274 100.989 78.3861 100.989 78.5618C100.989 78.7715 101.055 78.9387 101.187 79.0634C101.324 79.1881 101.498 79.2873 101.71 79.361C101.928 79.4347 102.165 79.5027 102.422 79.5651C102.68 79.6217 102.937 79.6869 103.195 79.7606C103.458 79.8343 103.695 79.9306 103.907 80.0497C104.124 80.1687 104.299 80.3274 104.43 80.5258C104.562 80.7242 104.628 80.9792 104.628 81.291C104.628 81.5914 104.545 81.872 104.379 82.1327C104.213 82.3877 103.956 82.5946 103.607 82.7533C103.263 82.9064 102.829 82.9829 102.302 82.9829Z" fill="#1D1D1D"/>
<path d="M111.447 82.9149V76.9634H113.978C114.619 76.9634 115.182 77.0881 115.669 77.3375C116.161 77.5869 116.541 77.9355 116.81 78.3833C117.085 78.831 117.222 79.3497 117.222 79.9391C117.222 80.5286 117.085 81.0473 116.81 81.495C116.541 81.9428 116.161 82.2914 115.669 82.5408C115.182 82.7902 114.619 82.9149 113.978 82.9149H111.447ZM112.305 82.1752H113.927C114.424 82.1752 114.853 82.0817 115.214 81.8946C115.58 81.7076 115.863 81.4469 116.063 81.1124C116.264 80.7724 116.364 80.3813 116.364 79.9391C116.364 79.4914 116.264 79.1003 116.063 78.7659C115.863 78.4314 115.58 78.1707 115.214 77.9837C114.853 77.7966 114.424 77.7031 113.927 77.7031H112.305V82.1752Z" fill="#1D1D1D"/>
<path d="M120.948 79.5311H124.037V80.2537H120.948V79.5311ZM121.025 82.1752H124.526V82.9149H120.167V76.9634H124.406V77.7031H121.025V82.1752Z" fill="#1D1D1D"/>
<path d="M134.167 82.9829C133.709 82.9829 133.286 82.9092 132.897 82.7618C132.513 82.6088 132.179 82.3962 131.893 82.1242C131.612 81.8464 131.392 81.5234 131.232 81.1549C131.072 80.7865 130.992 80.3813 130.992 79.9391C130.992 79.497 131.072 79.0918 131.232 78.7234C131.392 78.3549 131.615 78.0347 131.901 77.7626C132.187 77.4849 132.522 77.2723 132.905 77.125C133.294 76.9719 133.718 76.8954 134.175 76.8954C134.639 76.8954 135.065 76.9748 135.454 77.1335C135.849 77.2865 136.183 77.5161 136.458 77.8221L135.9 78.3578C135.671 78.1197 135.414 77.944 135.128 77.8306C134.842 77.7116 134.536 77.6521 134.21 77.6521C133.872 77.6521 133.557 77.7088 133.266 77.8221C132.98 77.9355 132.731 78.0942 132.519 78.2982C132.307 78.5023 132.141 78.746 132.021 79.0294C131.907 79.3072 131.85 79.6104 131.85 79.9391C131.85 80.2679 131.907 80.574 132.021 80.8574C132.141 81.1351 132.307 81.376 132.519 81.58C132.731 81.7841 132.98 81.9428 133.266 82.0562C133.557 82.1695 133.872 82.2262 134.21 82.2262C134.536 82.2262 134.842 82.1695 135.128 82.0562C135.414 81.9371 135.671 81.7558 135.9 81.512L136.458 82.0477C136.183 82.3537 135.849 82.5861 135.454 82.7448C135.065 82.9035 134.636 82.9829 134.167 82.9829Z" fill="#1D1D1D"/>
<path d="M138.26 82.9149L140.981 76.9634H141.83L144.559 82.9149H143.658L141.229 77.4395H141.573L139.144 82.9149H138.26ZM139.419 81.427L139.65 80.7468H143.031L143.28 81.427H139.419Z" fill="#1D1D1D"/>
<path d="M147.085 82.9149V76.9634H149.428C149.954 76.9634 150.403 77.0456 150.775 77.21C151.147 77.3744 151.433 77.6124 151.633 77.9242C151.834 78.2359 151.934 78.6072 151.934 79.0379C151.934 79.4687 151.834 79.84 151.633 80.1517C151.433 80.4578 151.147 80.693 150.775 80.8574C150.403 81.0217 149.954 81.1039 149.428 81.1039H147.557L147.943 80.7128V82.9149H147.085ZM151.101 82.9149L149.574 80.7553H150.492L152.037 82.9149H151.101ZM147.943 80.7979L147.557 80.3813H149.402C149.951 80.3813 150.366 80.2651 150.647 80.0327C150.933 79.7946 151.076 79.463 151.076 79.0379C151.076 78.6128 150.933 78.2841 150.647 78.0517C150.366 77.8193 149.951 77.7031 149.402 77.7031H147.557L147.943 77.278V80.7979Z" fill="#1D1D1D"/>
<path d="M156.06 82.9149V77.7031H154V76.9634H158.969V77.7031H156.909V82.9149H156.06Z" fill="#1D1D1D"/>
<path d="M160.322 82.9149L163.043 76.9634H163.892L166.621 82.9149H165.72L163.291 77.4395H163.635L161.206 82.9149H160.322ZM161.481 81.427L161.712 80.7468H165.093L165.342 81.427H161.481ZM164.072 76.4533C163.935 76.4533 163.812 76.425 163.703 76.3683C163.6 76.3116 163.506 76.2464 163.42 76.1727C163.334 76.0934 163.251 76.0254 163.171 75.9687C163.091 75.912 163.011 75.8837 162.931 75.8837C162.805 75.8837 162.702 75.9318 162.622 76.0282C162.548 76.1189 162.505 76.2464 162.493 76.4108H162.03C162.041 76.0934 162.121 75.8411 162.27 75.6541C162.419 75.4671 162.619 75.3735 162.871 75.3735C163.008 75.3735 163.131 75.4047 163.24 75.4671C163.349 75.5237 163.446 75.5918 163.532 75.6711C163.617 75.7448 163.698 75.81 163.772 75.8667C163.852 75.9233 163.932 75.9517 164.012 75.9517C164.138 75.9517 164.241 75.9063 164.321 75.8156C164.401 75.725 164.444 75.6003 164.45 75.4416H164.913C164.907 75.742 164.827 75.9857 164.673 76.1727C164.524 76.3598 164.324 76.4533 164.072 76.4533Z" fill="#1D1D1D"/>
<path d="M171.775 82.9829C171.318 82.9829 170.891 82.9064 170.497 82.7533C170.108 82.6003 169.77 82.3877 169.484 82.1157C169.198 81.8379 168.975 81.5149 168.815 81.1464C168.655 80.778 168.574 80.3756 168.574 79.9391C168.574 79.5027 168.655 79.1003 168.815 78.7319C168.975 78.3634 169.198 78.0432 169.484 77.7711C169.77 77.4934 170.108 77.278 170.497 77.125C170.886 76.9719 171.312 76.8954 171.775 76.8954C172.233 76.8954 172.653 76.9719 173.037 77.125C173.426 77.2723 173.763 77.4849 174.049 77.7626C174.341 78.0347 174.564 78.3549 174.719 78.7234C174.879 79.0918 174.959 79.497 174.959 79.9391C174.959 80.3813 174.879 80.7865 174.719 81.1549C174.564 81.5234 174.341 81.8464 174.049 82.1242C173.763 82.3962 173.426 82.6088 173.037 82.7618C172.653 82.9092 172.233 82.9829 171.775 82.9829ZM171.775 82.2262C172.107 82.2262 172.413 82.1695 172.693 82.0562C172.979 81.9428 173.225 81.7841 173.431 81.58C173.643 81.3703 173.806 81.1266 173.92 80.8489C174.041 80.5711 174.101 80.2679 174.101 79.9391C174.101 79.6104 174.041 79.3072 173.92 79.0294C173.806 78.7517 173.643 78.5108 173.431 78.3068C173.225 78.097 172.979 77.9355 172.693 77.8221C172.413 77.7088 172.107 77.6521 171.775 77.6521C171.438 77.6521 171.126 77.7088 170.84 77.8221C170.56 77.9355 170.314 78.097 170.102 78.3068C169.89 78.5108 169.724 78.7517 169.604 79.0294C169.49 79.3072 169.433 79.6104 169.433 79.9391C169.433 80.2679 169.49 80.5711 169.604 80.8489C169.724 81.1266 169.89 81.3703 170.102 81.58C170.314 81.7841 170.56 81.9428 170.84 82.0562C171.126 82.1695 171.438 82.2262 171.775 82.2262Z" fill="#1D1D1D"/>
</svg>
